#!OML:ASF F:\VICON\USERDATA\INSTALL\rory3\rory3.ASF
:FULLY-SPECIFIED
:DEGREES
421
root -6.43268 16.7531 -6.88261 177.091 -47.2559 -168.213
lowerback -3.22342 1.85967 4.18273
upperback -5.12627 2.22645 -1.41826
thorax -3.26864 0.858074 -3.79421
lowerneck -16.303 -3.30736 -12.3224
upperneck 24.0285 -6.139 15.4542
head 11.3511 -2.42975 6.93309
rclavicle 4.80065e-014 -9.54166e-015
rhumerus -23.0477 -12.1935 -68.6281
rradius 44.7434
rwrist 13.3203
rhand -33.218 -58.0455
rfingers 7.12502
rthumb -6.42471 -1167.93
lclavicle 4.80065e-014 -9.54166e-015
lhumerus -40.5968 0.0497577 56.3723
lradius 44.8399
lwrist 28.7809
lhand -42.0974 327.158
lfingers 7.12502
lthumb -14.989 -3.40404
rfemur -29.8559 20.9411 26.1671
rtibia 46.8796
rfoot -19.7569 -12.506
rtoes 1.95123
lfemur -38.4828 -5.38726 -4.675
ltibia 57.5679
lfoot -24.2879 13.949
ltoes -0.450271
422
root -6.46899 16.7654 -6.94739 177.925 -46.5033 -169.081
lowerback -3.58065 1.88385 3.98011
upperback -5.10526 2.23927 -1.44373
thorax -3.04994 0.874362 -3.69419
lowerneck -16.3264 -3.36998 -12.165
upperneck 24.2155 -6.1816 15.0284
head 11.4124 -2.48136 6.73788
rclavicle -4.07509e-014 7.95139e-015
rhumerus -23.4925 -11.866 -69.4541
rradius 44.6977
rwrist 12.2982
rhand -33.7347 -57.8525
rfingers 7.12502
rthumb -6.92345 -1167.72
lclavicle -4.07509e-014 7.95139e-015
lhumerus -40.1167 0.118415 57.2128
lradius 45.0912
lwrist 27.7229
lhand -41.9312 327.247
lfingers 7.12502
lthumb -14.8289 -3.30324
rfemur -29.8296 21.3632 25.7218
rtibia 46.9197
rfoot -19.9099 -12.3209
rtoes 1.75494
lfemur -38.4968 -5.84055 -5.6321
ltibia 57.3907
lfoot -24.6738 13.8329
ltoes -2.07865
423
root -6.50539 16.7703 -7.00978 178.3 -45.6464 -169.473
lowerback -3.71093 1.8523 4.1333
upperback -5.12057 2.18662 -1.3686
thorax -2.99566 0.843141 -3.69928
lowerneck -16.2633 -3.15202 -11.9333
upperneck 24.3851 -5.90144 14.7784
head 11.3978 -2.36701 6.64626
rclavicle -7.05686e-015 3.02153e-014
rhumerus -23.9063 -11.4213 -70.4257
rradius 44.5643
rwrist 11.8125
rhand -33.4163 -56.8161
rfingers 7.12502
rthumb -6.61615 -1166.69
lclavicle -7.05686e-015 3.02153e-014
lhumerus -39.9051 0.0293198 58.091
lradius 45.5309
lwrist 26.9948
lhand -41.7943 327.053
lfingers 7.12502
lthumb -14.697 -3.48749
rfemur -29.7006 21.8193 25.6348
rtibia 46.9398
rfoot -20.1523 -11.8509
rtoes 2.32551
lfemur -38.3853 -6.15433 -6.21895
ltibia 57.2142
lfoot -25.1773 13.5139
ltoes -2.03475
424
root -6.54444 16.7732 -7.07106 178.587 -44.8749 -169.755
lowerback -3.83597 1.67764 4.30296
upperback -5.15342 1.94347 -1.1527
thorax -2.9849 0.716389 -3.57185
lowerneck -16.3234 -2.771 -11.6983
upperneck 24.747 -5.35182 14.3828
head 11.4327 -2.14217 6.54755
rclavicle 9.93923e-016 -2.22639e-014
rhumerus -24.249 -10.423 -71.4816
rradius 44.1739
rwrist 12.4474
rhand -32.8451 -56.9267
rfingers 7.12502
rthumb -6.0647 -1166.82
lclavicle 9.93923e-016 -2.22639e-014
lhumerus -40.0443 0.272052 58.9359
lradius 46.1142
lwrist 26.8799
lhand -41.6624 326.775
lfingers 7.12502
lthumb -14.5699 -3.75713
rfemur -29.5356 22.4873 25.5982
rtibia 46.958
rfoot -20.328 -11.7169
rtoes 2.76162
lfemur -38.3021 -6.45564 -6.75375
ltibia 56.983
lfoot -25.4987 13.2731
ltoes -2.28465
425
root -6.59185 16.7805 -7.12864 179.294 -44.426 -170.391
lowerback -4.29373 1.39892 4.23742
upperback -5.19221 1.54288 -0.958552
thorax -2.81186 0.519528 -3.33095
lowerneck -16.2146 -2.53076 -11.92
upperneck 25.0708 -4.94512 14.1747
head 11.4635 -2.01472 6.58084
rclavicle -7.12643e-014 -2.46493e-014
rhumerus -24.5388 -9.22073 -72.4292
rradius 43.519
rwrist 13.7928
rhand -33.1517 -56.5126
rfingers 7.12502
rthumb -6.3607 -1166.4
lclavicle -7.12643e-014 -2.46493e-014
lhumerus -40.3151 0.504201 59.8604
lradius 46.6972
lwrist 26.58
lhand -41.3697 326.978
lfingers 7.12502
lthumb -14.2879 -3.53348
rfemur -29.5208 22.782 25.1794
rtibia 46.9546
rfoot -20.5553 -11.5934
rtoes 2.55351
lfemur -38.4706 -6.98437 -7.62127
ltibia 56.6964
lfoot -25.5425 13.3487
ltoes -3.52585
426
root -6.64764 16.794 -7.17082 180.42 -44.0891 -171.476
lowerback -4.70627 1.21076 4.17635
upperback -5.34089 1.25458 -1.06753
thorax -2.76032 0.364931 -3.41017
lowerneck -15.972 -2.34343 -11.9103
upperneck 25.2629 -4.70669 14.0264
head 11.4413 -1.94163 6.56134
rclavicle -1.15891e-013 -2.78299e-014
rhumerus -24.9822 -8.32487 -73.2816
rradius 42.9438
rwrist 14.3921
rhand -33.8351 -55.1304
rfingers 7.12502
rthumb -7.02037 -1164.99
lclavicle -1.15891e-013 -2.78299e-014
lhumerus -40.4342 0.0253046 60.8969
lradius 47.2425
lwrist 26.2124
lhand -41.4772 327.392
lfingers 7.12502
lthumb -14.3914 -3.12643
rfemur -29.6332 22.5529 24.3133
rtibia 46.9595
rfoot -20.937 -11.0141
rtoes 2.34138
lfemur -38.7392 -7.60551 -8.89217
ltibia 56.3281
lfoot -25.5382 13.4771
ltoes -5.12032
427
root -6.68719 16.8003 -7.2399 180.536 -43.5047 -171.558
lowerback -4.8704 1.10626 4.32517
upperback -5.40873 1.09707 -0.927082
thorax -2.75392 0.278181 -3.35033
lowerneck -15.5667 -2.11401 -11.5061
upperneck 25.3135 -4.46172 13.6752
head 11.3181 -1.85306 6.38066
rclavicle -2.05742e-014 -9.54166e-015
rhumerus -25.4842 -7.84581 -74.0636
rradius 42.5707
rwrist 14.3576
rhand -33.5381 -54.8256
rfingers 7.12502
rthumb -6.73367 -1164.7
lclavicle -2.05742e-014 -9.54166e-015
lhumerus -40.2781 -0.365027 61.9233
lradius 47.5071
lwrist 25.825
lhand -41.396 327.285
lfingers 7.12502
lthumb -14.3132 -3.22815
rfemur -29.3615 23.0517 24.433
rtibia 46.9206
rfoot -21.1656 -10.8545
rtoes 2.53665
lfemur -38.6683 -7.79955 -9.25508
ltibia 55.9972
lfoot -25.7666 12.8437
ltoes -5.32432
